<?xml version="1.0" standalone="no"?>
<!DOCTYPE svg PUBLIC "-//W3C//DTD SVG 20010904//EN"
 "http://www.w3.org/TR/2001/REC-SVG-20010904/DTD/svg10.dtd">
<svg version="1.0" xmlns="http://www.w3.org/2000/svg"
 width="256.000000pt" height="256.000000pt" viewBox="0 0 256.000000 256.000000"
 preserveAspectRatio="xMidYMid meet">

<g transform="translate(0.000000,256.000000) scale(0.100000,-0.100000)"
fill="#000000" stroke="none">
<path d="M1235 2076 c-38 -16 -75 -59 -117 -134 l-31 -57 -111 3 c-196 6 -304
-35 -360 -138 -23 -41 -29 -65 -29 -114 1 -107 49 -171 149 -197 37 -9 44 -16
58 -54 10 -24 24 -46 33 -49 10 -4 36 10 70 36 31 24 92 71 137 106 44 35 135
90 201 122 66 33 144 78 174 101 51 39 58 41 107 37 35 -3 66 -14 93 -31 l40
-27 33 47 c37 55 77 148 78 181 1 77 -114 81 -220 7 -51 -35 -108 -42 -165
-21 -77 30 -120 105 -96 169 12 31 4 34 -44 13z"/>
<path d="M1302 1458 c-7 -7 -12 -35 -12 -64 0 -59 33 -119 65 -119 45 0 41
123 -5 173 -24 25 -31 27 -48 10z"/>
<path d="M60 1034 c0 -15 167 -51 180 -38 5 5 -28 17 -86 30 -67 14 -94 17
-94 8z"/>
<path d="M615 1019 l-30 -20 30 7 c36 8 38 10 34 23 -3 6 -16 2 -34 -10z"/>
<path d="M510 1000 c-22 -6 -23 -8 -7 -15 20 -8 47 0 47 15 0 11 -4 11 -40 0z"/>
<path d="M257 993 c-3 -5 6 -9 19 -9 13 -1 21 2 18 7 -6 11 -31 12 -37 2z"/>
<path d="M390 980 c0 -6 7 -10 15 -10 8 0 15 2 15 4 0 2 -7 6 -15 10 -8 3 -15
1 -15 -4z"/>
<path d="M140 861 c0 -5 10 -11 23 -15 35 -9 40 -7 27 9 -13 16 -50 21 -50 6z"/>
<path d="M220 852 c0 -19 18 -23 114 -30 68 -5 92 -4 89 4 -2 6 -41 14 -88 18
-46 3 -90 9 -99 12 -9 3 -16 1 -16 -4z"/>
<path d="M457 843 c-15 -2 -25 -9 -22 -14 11 -17 105 -7 105 12 0 9 -31 10
-83 2z"/>
<path d="M650 735 c-14 -8 -49 -20 -77 -26 -29 -7 -53 -16 -53 -20 0 -13 18
-20 25 -9 3 5 16 10 29 10 37 0 86 21 97 41 12 22 11 22 -21 4z"/>
<path d="M64 722 c6 -9 70 -26 106 -27 8 0 20 -3 27 -7 20 -14 207 -31 256
-24 79 12 53 26 -50 26 -54 0 -136 7 -183 16 -142 26 -164 28 -156 16z"/>
<path d="M624 571 c-22 -10 -72 -24 -112 -31 -67 -11 -107 -30 -64 -30 65 0
242 52 242 71 0 13 -19 10 -66 -10z"/>
<path d="M147 549 c24 -24 263 -51 263 -29 0 6 -19 10 -42 10 -24 1 -79 7
-123 15 -98 18 -113 19 -98 4z"/>
<path d="M610 413 c-96 -38 -256 -43 -408 -14 -61 12 -119 24 -127 27 -8 4
-15 1 -15 -5 0 -27 180 -55 350 -55 118 0 144 3 204 25 38 13 71 30 74 37 5
16 0 15 -78 -15z"/>
</g>
</svg>
