<svg xmlns="http://www.w3.org/2000/svg" width="253" height="127" fill="none"><mask id="a" width="253" height="127" x="0" y="0" maskUnits="userSpaceOnUse" style="mask-type:alpha"><path fill="#D9D9D9" d="M0 0h253v127H0z"/></mask><g mask="url(#a)"><mask id="b" width="320" height="127" x="-33" y="1" maskUnits="userSpaceOnUse" style="mask-type:alpha"><path fill="#D9D9D9" d="M-33 1h319.042v126.104H-33z"/></mask><g mask="url(#b)"><path fill="#1D6EDE" d="M35.779 39.504a126.104 126.104 0 1 1-14.808 18.55l52.76 34.524a63.052 63.052 0 1 0 7.403-9.275L35.78 39.505Z"/><path fill="#FEB016" d="M.406 129.304A126.103 126.103 0 0 1 96.19 4.694l15.149 61.204a63.052 63.052 0 0 0-47.892 62.305L.406 129.304Z"/></g><circle cx="126.913" cy="128.019" r="84.983" fill="#fff"/></g></svg>